<?xml version="1.0" encoding="utf-8"?>
<!-- Generator: Adobe Illustrator 16.0.0, SVG Export Plug-In . SVG Version: 6.00 Build 0)  -->
<!DOCTYPE svg PUBLIC "-//W3C//DTD SVG 1.1//EN" "http://www.w3.org/Graphics/SVG/1.1/DTD/svg11.dtd">
<svg version="1.1" id="Layer_1" xmlns="http://www.w3.org/2000/svg" xmlns:xlink="http://www.w3.org/1999/xlink" x="0px" y="0px" xml:space="preserve">
<g>
	<path fill="#FFFFFF" d="M65.067,64.333c4.442,13.465,8.498,26.426,11.588,40.565h0.579c3.283-13.634,7.338-27.1,11.78-40.061
		l9.044-26.395c-10.52-6.023-20.532-11.729-26.91-15.303c-6.931-3.885-14.211-5.11-21.017-4.05L65.067,64.333z"/>
	<path fill="#FFFFFF" d="M146.765,67.134c-1.513-1.377-3.284-2.509-5.055-3.551c-1.966-1.156-9.353-5.427-18.839-10.89l-29.8,77.116
		H58.694l-33.42-90.888c-1.479,3.59-2.248,7.45-2.207,11.571c0.261,26.531,0.494,53.062,0.889,79.591
		c0.363,24.483,25.43,38.881,46.795,26.89c23.338-13.099,46.625-26.286,69.887-39.518
		C159.518,106.716,162.566,81.526,146.765,67.134z"/>
</g>
</svg>
